# xmcd CD database file
#
# Track frame offsets:
#	150
#	17009
#	46725
#	60325
#	75020
#	97042
#	118277
#	140013
#	165131
#	191373
#	220395
#	251067
#	270727
#	305328
#	337009
#
# Disc length: 4770 seconds
#
# Revision: 1
# Processed by: cddbd v1.5.2PL0 Copyright (c) Steve Scherf et al.
# Submitted via: CDex 1.70beta2
#
DISCID=c712a00f
DTITLE=Various Artist - The Best Of Blue Note 2
DYEAR=2013
DGENRE=Jazz
TTITLE0=Chet Baker - Let's Get Lost
TTITLE1=Kenny Burrell with Art Blakey - Lady Be Good
TTITLE2=Milt Jackson with Thelonious Monk - Willow Weep For Me
TTITLE3=Miles Davis - Jeru
TTITLE4=Cannonball Adderly - Autumn Leaves
TTITLE5=Lou Donaldson - The Nearness Of You
TTITLE6=Jackie McLean - Let's Face The Music And Dance
TTITLE7=Bennie Green - All I Do Is Dream Of You
TTITLE8=Art Blakey and The Jazz Messengers - Come Rain Or Come Shine
TTITLE9=Sonny Rollins - You Stepped Out Of A Dream
TTITLE10=Cliff Jordan - Sophisticated Lady
TTITLE11=Clifford Brown - You Go To My Head
TTITLE12=Jimmy Smith - Blue Moon
TTITLE13=Sonny Clark - It Could Happen To You
TTITLE14=John Coltrane - Blue Train
EXTD=YEAR: 2013
EXTT0=
EXTT1=
EXTT2=
EXTT3=
EXTT4=
EXTT5=
EXTT6=
EXTT7=
EXTT8=
EXTT9=
EXTT10=
EXTT11=
EXTT12=
EXTT13=
EXTT14=
PLAYORDER=
